<svg width="605" height="182" viewBox="0 0 605 182" fill="none" xmlns="http://www.w3.org/2000/svg">
<path d="M114.639 24.7037C114.321 24.4837 113.905 24.4666 113.57 24.66C113.235 24.8533 113.042 25.2223 113.073 25.6076L120.592 117.395C120.625 117.799 120.898 118.143 121.284 118.266C121.67 118.39 122.092 118.268 122.353 117.959L149.127 86.2462L189.978 78.9157C190.376 78.8442 190.692 78.5394 190.778 78.1437C190.864 77.748 190.703 77.3395 190.37 77.1091L114.639 24.7037Z" fill="white" stroke="black" stroke-width="2" stroke-linejoin="round"/>
<circle cx="478" cy="107" r="69" fill="#20186F"/>
<path d="M442 88.546C443.331 85.834 452.651 76.3434 457.976 83.8015L459 86.599V89.6654L457.976 115.768C457.976 134.075 462.414 158.686 474.84 138.345C484.781 122.073 488.293 113.221 498.5 96.9482C508.067 81.6966 512.675 79.0554 518 83.8015" stroke="white" stroke-width="5" stroke-linecap="round" stroke-linejoin="round"/>
</svg>
